<svg xmlns="http://www.w3.org/2000/svg" viewBox="0 0 2500 2500">
  <g transform="translate(0, 2500) scale(1, -1)">
    <path d="M2140 1989c-36 -4 -92 -16 -126 -27c-33 -12 -388 -167 -788 -346c-400 -180 -736 -326 -745 -326c-10 0 -69 39 -132 86c-141 106 -156 114 -215 114c-81 0 -147 -62 -129 -122c4 -13 52 -123 107 -245c87 -194 104 -225 136 -247c130 -90 386 -45 850 147c76 32 132 50 132 44c0 -7 -28 -164 -62 -350c-57 -312 -61 -341 -47 -365c24 -44 57 -49 125 -18c80 37 115 66 156 128c20 29 122 240 227 468l192 416l217 108c353 176 503 272 518 331c13 53 -69 140 -165 176c-69 26 -165 36 -251 28z"/>
    <path d="M660 1889c-68 -11 -154 -53 -167 -81c-22 -50 3 -77 162 -175l147 -91l141 65c78 36 179 81 224 101c46 20 79 39 75 43c-12 11 -404 128 -452 134c-25 4 -54 8 -65 9c-11 2 -40 0 -65 -5z"/>
  </g>
</svg>
